<svg width="63" height="88" viewBox="0 0 63 88" fill="none" xmlns="http://www.w3.org/2000/svg">
<g clip-path="url(#clip0)">
<path d="M31.1642 87.7777L5.76802 80.7274L0.108475 17.2504H62.2959L56.6306 80.7177L31.1642 87.7777Z" fill="#264DE4"/>
<path d="M51.7803 76.6763L56.6215 22.4405H31.2022V82.3812L51.7803 76.6763Z" fill="#2965F1"/>
<path d="M13.0827 45.9833L13.7804 53.7685H31.2022V45.9833H13.0827Z" fill="#EBEBEB"/>
<path d="M11.6806 30.226L12.3883 38.0111H31.2022V30.226H11.6806Z" fill="#EBEBEB"/>
<path d="M31.2022 66.2024L31.1681 66.2114L22.4978 63.8703L21.9434 57.6613H14.1283L15.2189 69.8852L31.1664 74.312L31.2022 74.3023V66.2024Z" fill="#EBEBEB"/>
<path d="M14.744 0H24.1729V3.94318H18.6872V7.88636H24.1734V11.8293H14.744V0Z" fill="black"/>
<path d="M26.059 0H35.4881V3.42883H30.0022V4.11455H35.4881V12.0009H26.0592V8.40022H31.5452V7.71451H26.0587V0H26.059Z" fill="black"/>
<path d="M37.3742 0H46.8033V3.42883H41.3173V4.11455H46.8033V12.0009H37.3742V8.40022H42.8601V7.71451H37.3744V0H37.3742Z" fill="black"/>
<path d="M49.272 45.9833L50.6773 30.226H31.1754V38.0111H42.1454L41.437 45.9833H31.1754V53.7685H40.762L39.8582 63.8654L31.1752 66.2089V74.3083L47.1353 69.8852L47.2523 68.5698L49.0821 48.0739L49.272 45.9833Z" fill="white"/>
</g>
<defs>
<clipPath id="clip0">
<rect width="62.4044" height="88" fill="white"/>
</clipPath>
</defs>
</svg>
