<svg width="88" height="88" viewBox="0 0 88 88" fill="none" xmlns="http://www.w3.org/2000/svg">
<path d="M58.6667 58.6667C66.7668 58.6667 73.3333 52.1002 73.3333 44C73.3333 35.8999 66.7668 29.3334 58.6667 29.3334C50.5665 29.3334 44 35.8999 44 44C44 52.1002 50.5665 58.6667 58.6667 58.6667Z" fill="#19BCFE"/>
<path fill-rule="evenodd" clip-rule="evenodd" d="M29.3333 88C33.2232 88 36.9537 86.4548 39.7042 83.7042C42.4548 80.9537 44 77.2232 44 73.3333V58.6667H29.3333C25.4435 58.6667 21.713 60.2119 18.9625 62.9625C16.2119 65.713 14.6667 69.4435 14.6667 73.3333C14.6667 77.2232 16.2119 80.9537 18.9625 83.7042C21.713 86.4548 25.4435 88 29.3333 88Z" fill="#09CF83"/>
<path fill-rule="evenodd" clip-rule="evenodd" d="M29.3333 58.6667H44V29.3334H29.3333C25.4435 29.3334 21.713 30.8786 18.9625 33.6291C16.2119 36.3797 14.6667 40.1102 14.6667 44C14.6667 47.8899 16.2119 51.6204 18.9625 54.3709C21.713 57.1214 25.4435 58.6667 29.3333 58.6667Z" fill="#A259FF"/>
<path fill-rule="evenodd" clip-rule="evenodd" d="M29.3333 29.3333H44V0H29.3333C25.4435 0 21.713 1.54523 18.9625 4.29577C16.2119 7.0463 14.6667 10.7768 14.6667 14.6667C14.6667 18.5565 16.2119 22.287 18.9625 25.0376C21.713 27.7881 25.4435 29.3333 29.3333 29.3333Z" fill="#F24E1E"/>
<path fill-rule="evenodd" clip-rule="evenodd" d="M58.6667 29.3333H44V0H58.6667C62.5565 0 66.287 1.54523 69.0375 4.29577C71.7881 7.0463 73.3333 10.7768 73.3333 14.6667C73.3333 18.5565 71.7881 22.287 69.0375 25.0376C66.287 27.7881 62.5565 29.3333 58.6667 29.3333Z" fill="#FF7262"/>
</svg>
