<svg width="63" height="88" viewBox="0 0 63 88" fill="none" xmlns="http://www.w3.org/2000/svg">
<g clip-path="url(#clip0)">
<path d="M62.2959 17.2504L56.6305 80.7177L31.1642 87.7777L5.76801 80.7274L0.108459 17.2504H62.2959Z" fill="#E44D26"/>
<path d="M31.2022 82.3812L51.7803 76.6763L56.6215 22.4405H31.2022V82.3812Z" fill="#F16529"/>
<path d="M20.1888 38.0112H31.2022V30.226H11.6806L11.8668 32.3146L13.7804 53.7685H31.2022V45.9833H20.9004L20.1888 38.0112Z" fill="#EBEBEB"/>
<path d="M21.9434 57.6613H14.1283L15.2189 69.8852L31.1664 74.312L31.2022 74.3023V66.2024L31.1681 66.2114L22.4978 63.8703L21.9434 57.6613Z" fill="#EBEBEB"/>
<path d="M5.89429 0H9.85063V3.90881H13.4698V0H17.4264V11.8368H13.4701V7.87319H9.85087V11.8368H5.89453V0H5.89429Z" fill="black"/>
<path d="M22.6289 3.92538H19.1465V0H30.0706V3.92538H26.586V11.8368H22.6296V3.92538H22.6294H22.6289Z" fill="black"/>
<path d="M31.8043 0H35.9296L38.4672 4.15916L41.0024 0H45.1294V11.8368H41.1891V5.96986L38.4672 10.1785H38.399L35.6753 5.96986V11.8368H31.8043V0Z" fill="black"/>
<path d="M47.0983 0H51.0558V7.92439H56.6196V11.8368H47.098V0H47.0983Z" fill="black"/>
<path d="M31.1754 53.7685H40.762L39.8582 63.8653L31.1752 66.2089V74.3083L47.1353 69.8851L47.2524 68.5698L49.0821 48.0738L49.272 45.9833H31.1754V53.7685Z" fill="white"/>
<path d="M31.1754 37.9921V38.0111H49.9804L50.1364 36.2614L50.4913 32.3145L50.6773 30.226H31.1754V37.9924V37.9921Z" fill="white"/>
</g>
<defs>
<clipPath id="clip0">
<rect width="62.4044" height="88" fill="white"/>
</clipPath>
</defs>
</svg>
