<svg width="88" height="88" viewBox="0 0 88 88" fill="none" xmlns="http://www.w3.org/2000/svg">
<g clip-path="url(#clip0)">
<path d="M84.0482 25.7647L83.6742 24.9205L83.0445 25.6052C81.5526 27.3105 79.6582 28.6159 77.5335 29.403L76.9423 29.6312L77.187 30.2032C79.0096 34.5685 79.9444 39.253 79.937 43.9834C79.937 63.8054 63.822 79.9341 43.9862 79.9341C24.1505 79.9341 8.04925 63.8191 8.04925 43.9972C8.04925 24.1752 24.1945 8.04652 44 8.04652C49.3872 8.04652 54.571 9.20976 59.3973 11.5143L59.9692 11.7865L60.214 11.2255C61.1012 9.14123 62.4933 7.3106 64.2647 5.89877L64.9825 5.31302L64.1657 4.88402C57.9334 1.66062 51.0165 -0.0145959 44 3.39704e-05C19.7367 3.39704e-05 0 19.7367 0 43.9999C0 68.2769 19.7367 87.9998 44 87.9998C68.277 87.9998 88 68.2769 88 43.9999C88 37.6557 86.6827 31.526 84.0482 25.7647ZM44 23.947C38.6832 23.9521 33.5856 26.0664 29.826 29.826C26.0665 33.5855 23.9521 38.6831 23.947 43.9999C23.9521 49.3167 26.0665 54.4143 29.826 58.1739C33.5856 61.9334 38.6832 64.0478 44 64.0529C49.3168 64.0478 54.4144 61.9334 58.174 58.1739C61.9335 54.4143 64.0479 49.3167 64.053 43.9999C64.0479 38.6831 61.9335 33.5855 58.174 29.826C54.4144 26.0664 49.3168 23.9521 44 23.947ZM81.928 16.5852C81.9287 17.7856 81.6929 18.9744 81.2339 20.0836C80.775 21.1927 80.1019 22.2006 79.2533 23.0495C78.4046 23.8985 77.3969 24.5718 76.2879 25.0311C75.1788 25.4904 73.9901 25.7266 72.7897 25.7262C71.5882 25.728 70.398 25.4929 69.2874 25.0344C68.1768 24.5758 67.1675 23.9028 66.3172 23.0538C65.4669 22.2048 64.7924 21.1965 64.3321 20.0865C63.8719 18.9766 63.635 17.7868 63.635 16.5852C63.635 4.39727 81.928 4.39727 81.928 16.5852Z" fill="#3880FF"/>
</g>
<defs>
<clipPath id="clip0">
<rect width="88" height="88" fill="white"/>
</clipPath>
</defs>
</svg>
