<svg width="88" height="88" viewBox="0 0 88 88" fill="none" xmlns="http://www.w3.org/2000/svg">
<path d="M0 0H88V88H0V0Z" fill="#F7DF1E"/>
<path d="M23.1385 73.5392L29.8726 69.4637C31.1719 71.7672 32.3538 73.7163 35.1887 73.7163C37.906 73.7163 39.6196 72.6534 39.6196 68.5188V40.4007H47.8892V68.6356C47.8892 77.2009 42.8684 81.0997 35.5431 81.0997C28.9276 81.0997 25.0876 77.6735 23.1382 73.5385" fill="black"/>
<path d="M52.3809 72.653L59.1143 68.7545C60.887 71.6493 63.1908 73.7757 67.2663 73.7757C70.6932 73.7757 72.8781 72.0625 72.8781 69.6995C72.8781 66.8643 70.6334 65.8598 66.8528 64.2064L64.7858 63.3195C58.8194 60.7802 54.8618 57.5902 54.8618 50.8562C54.8618 44.6536 59.5873 39.9277 66.9714 39.9277C72.2287 39.9277 76.0093 41.7592 78.7263 46.5438L72.2872 50.6791C70.8692 48.1392 69.334 47.1351 66.9711 47.1351C64.549 47.1351 63.0131 48.671 63.0131 50.6791C63.0131 53.16 64.549 54.1648 68.0931 55.7006L70.1604 56.5865C77.1901 59.5995 81.1477 62.6709 81.1477 69.5816C81.1477 77.0252 75.2998 81.1007 67.4434 81.1007C59.7643 81.1007 54.8023 77.4384 52.3806 72.6534" fill="black"/>
</svg>
