<svg width="228" height="65" viewBox="0 0 228 65" fill="none" xmlns="http://www.w3.org/2000/svg">
<g clip-path="url(#clip0)">
<path fill-rule="evenodd" clip-rule="evenodd" d="M212.235 26.9185C212.03 26.9595 211.825 27.4113 211.825 27.6575C211.784 29.3012 211.743 33.6562 211.743 36.6142C211.743 36.6965 211.866 36.8608 211.989 36.8608C212.605 36.9018 214.084 36.9427 215.358 36.9427C217.124 36.9427 218.152 36.6965 218.727 36.4503C220.206 35.7104 220.904 34.1081 220.904 32.3411C220.904 28.3565 218.111 26.8361 213.961 26.8361C213.673 26.7952 212.852 26.7952 212.235 26.9185ZM222.836 45.2832C222.836 41.2158 219.836 38.956 214.413 38.956C214.167 38.956 212.441 38.915 212.03 38.9969C211.907 39.0383 211.743 39.1207 211.743 39.244C211.743 42.1605 211.701 46.8036 211.825 48.6111C211.907 49.3916 212.482 50.501 213.181 50.8296C213.92 51.2405 215.605 51.3224 216.755 51.3224C220.001 51.3224 222.836 49.5149 222.836 45.2832ZM203.855 24.6591C204.265 24.6591 205.498 24.782 208.661 24.782C211.66 24.782 214.043 24.7 216.96 24.7C220.534 24.7 225.465 25.9733 225.465 31.3145C225.465 33.9438 223.616 36.0394 221.192 37.0665C221.069 37.1075 221.069 37.1894 221.192 37.2303C224.643 38.0936 227.683 40.2297 227.683 44.2557C227.683 48.2002 225.218 50.7063 221.644 52.2676C219.466 53.2123 216.755 53.5409 214.002 53.5409C211.907 53.5409 206.278 53.2947 203.156 53.3771C202.828 53.2533 203.444 51.7743 203.731 51.5281C204.471 51.4867 205.046 51.4457 205.827 51.1991C206.936 50.9119 207.059 50.5829 207.223 48.8987C207.305 47.4607 207.305 42.3658 207.305 38.7507C207.305 33.7796 207.347 30.4107 207.305 28.7674C207.265 27.4941 206.813 27.0828 205.909 26.8361C205.21 26.7133 204.06 26.5485 203.115 26.4256C202.909 26.22 203.608 24.8229 203.855 24.6591ZM180.148 50.2134C181.135 50.9934 183.066 51.322 184.791 51.322C187.01 51.322 189.228 50.9119 191.365 48.9802C193.542 47.0088 195.062 43.9685 195.062 39.1207C195.062 34.4776 193.296 30.6978 189.68 28.4798C187.626 27.2057 184.997 26.6723 181.956 26.6723C181.053 26.6723 180.19 26.7133 179.656 26.9595C179.532 27.0418 179.245 27.4113 179.245 27.6166C179.163 28.4384 179.163 34.7652 179.163 38.4631C179.163 42.2839 179.163 47.625 179.245 48.2412C179.245 48.8578 179.532 49.8025 180.149 50.2134H180.148ZM170.822 24.6586C171.603 24.6586 174.602 24.782 176.04 24.782C178.629 24.782 180.477 24.6591 185.366 24.6591C189.475 24.6591 192.926 25.7681 195.391 27.8632C198.39 30.4516 199.952 34.0262 199.952 38.3808C199.952 44.5847 197.117 48.1592 194.281 50.2134C191.447 52.3086 187.749 53.5409 182.491 53.5409C179.697 53.5409 174.89 53.459 170.905 53.4176H170.864C170.658 53.048 171.192 51.61 171.521 51.5691C172.589 51.4457 172.877 51.4043 173.411 51.1996C174.273 50.8705 174.438 50.4187 174.562 48.8987C174.684 46.0637 174.643 42.6538 174.643 38.7917C174.643 36.0394 174.684 30.6569 174.602 28.9313C174.479 27.4937 173.863 27.1237 172.63 26.8771C172.014 26.7542 171.192 26.5895 170.042 26.4666C169.878 26.1786 170.617 24.9053 170.822 24.6591V24.6586Z" fill="#8E714E"/>
<path fill-rule="evenodd" clip-rule="evenodd" d="M121.111 51.8152C120.083 51.6919 119.344 51.5281 118.44 51.1171C118.317 51.0348 118.111 50.6243 118.111 50.4596C118.029 49.0216 118.029 44.9132 118.029 42.1609C118.029 39.942 117.66 38.0112 116.715 36.6555C115.605 35.0938 114.003 34.1904 111.949 34.1904C110.141 34.1904 107.717 35.4228 105.704 37.1484C105.663 37.1893 105.334 37.4774 105.375 37.0251C105.375 36.5732 105.458 35.6694 105.499 35.0528C105.54 34.4776 105.211 34.1904 105.211 34.1904C103.896 34.8476 100.199 35.7104 98.8427 35.8332C97.8571 36.0394 97.6104 36.9841 98.638 37.3127H98.6789C99.7875 37.6412 100.527 38.0112 101.102 38.3811C101.513 38.7097 101.472 39.1616 101.472 39.5316C101.513 42.6124 101.513 47.3373 101.39 49.9258C101.349 50.9529 101.062 51.3224 100.322 51.4867L100.404 51.4457C99.8289 51.569 99.377 51.6919 98.6785 51.7743C98.4318 52.0209 98.4318 53.3356 98.6785 53.6232C99.1303 53.6232 101.513 53.4999 103.486 53.4999C106.197 53.4999 107.594 53.6232 108.292 53.6232C108.58 53.2946 108.662 52.0619 108.498 51.7743C107.717 51.7333 107.142 51.6514 106.608 51.4867C105.869 51.3219 105.663 50.9529 105.621 50.0901C105.54 47.9121 105.54 43.3109 105.54 40.1887C105.54 39.3259 105.786 38.915 106.032 38.6683C106.978 37.8469 108.498 37.2717 109.854 37.2717C111.168 37.2717 112.031 37.6826 112.688 38.2169C113.592 38.9559 113.88 40.0244 114.003 40.8048C114.208 42.5714 114.126 46.0636 114.126 49.1039C114.126 50.7472 114.003 51.1581 113.387 51.3633C113.099 51.4867 112.36 51.6514 111.497 51.7329C111.209 52.0209 111.292 53.2946 111.497 53.5822C112.688 53.5822 114.085 53.4589 116.139 53.4589C118.686 53.4589 120.33 53.5822 120.988 53.5822C121.192 53.3356 121.275 52.1442 121.111 51.8152ZM132.491 36.1217C130.314 36.1217 128.958 37.8059 128.958 40.4349C128.958 43.1057 130.149 46.1869 133.518 46.1869C134.093 46.1869 135.162 45.9403 135.654 45.3651C136.435 44.626 136.969 43.1466 136.969 41.5853C136.969 38.1755 135.285 36.1213 132.491 36.1213V36.1217ZM132.203 54.2803C131.382 54.2803 130.806 54.527 130.437 54.7327C128.711 55.8412 127.931 56.9097 127.931 58.1839C127.931 59.3748 128.383 60.3195 129.369 61.1414C130.56 62.1685 132.203 62.6618 134.298 62.6618C138.489 62.6618 140.338 60.4019 140.338 58.1839C140.338 56.6221 139.557 55.595 137.955 55.0203C136.805 54.527 134.71 54.2803 132.203 54.2803ZM132.491 64.9626C129.985 64.9626 128.177 64.4283 126.616 63.237C125.096 62.0866 124.438 60.3609 124.438 59.1696C124.438 58.841 124.521 57.9368 125.26 57.1154C125.712 56.6221 126.698 55.6774 129.04 54.0751C129.122 54.0341 129.163 53.9932 129.163 53.9104C129.163 53.8284 129.081 53.7461 128.999 53.7056C127.068 52.9661 126.493 51.7743 126.328 51.1171V51.0348C126.287 50.7881 126.205 50.5419 126.575 50.2953C126.863 50.0901 127.274 49.8434 127.725 49.5562C128.424 49.1449 129.163 48.693 129.615 48.323C129.697 48.2411 129.697 48.1592 129.697 48.0768C129.697 47.9945 129.615 47.9121 129.533 47.8716C126.657 46.9264 125.219 44.7899 125.219 41.5853C125.219 39.4902 126.164 37.6003 127.848 36.4089C128.999 35.5051 131.875 34.3957 133.765 34.3957H133.888C135.819 34.4366 136.887 34.8476 138.407 35.3818C139.229 35.6694 140.01 35.7923 141.078 35.7923C142.68 35.7923 143.378 35.2994 143.953 34.7247C143.995 34.8066 144.077 35.0123 144.118 35.5461C144.159 36.0803 143.995 36.8608 143.584 37.436C143.255 37.8879 142.516 38.2169 141.776 38.2169H141.57C140.831 38.1345 140.502 38.0521 140.502 38.0521L140.338 38.1345C140.297 38.2169 140.338 38.2988 140.379 38.4221L140.42 38.5045C140.502 38.874 140.667 39.983 140.667 40.271C140.667 43.6399 139.311 45.1184 137.873 46.2279C136.476 47.255 134.874 47.9121 133.066 48.0768C133.025 48.0768 132.861 48.0768 132.491 48.1178C132.286 48.1178 131.998 48.1592 131.957 48.1592H131.916C131.587 48.2411 130.766 48.652 130.766 49.3501C130.766 49.9663 131.135 50.7062 132.902 50.8295C133.271 50.8705 133.641 50.8705 134.052 50.9119C136.394 51.0757 139.311 51.2814 140.667 51.7333C142.557 52.4314 143.748 54.116 143.748 56.1293C143.748 59.17 141.571 62.0046 137.955 63.7708C136.189 64.5517 134.422 64.9626 132.491 64.9626ZM155.909 36.327C155.046 36.327 154.265 36.5318 153.69 36.9427C152.088 37.9288 151.267 39.9011 151.267 42.7767C151.267 48.1592 153.978 51.939 157.84 51.939C158.99 51.939 159.894 51.61 160.675 50.9529C161.866 49.9663 162.483 47.9945 162.483 45.2418C162.483 39.9011 159.812 36.3265 155.909 36.3265L155.909 36.327ZM156.649 53.9108C149.664 53.9108 147.158 48.7754 147.158 43.9685C147.158 40.5996 148.514 38.0112 151.225 36.1622C153.156 34.9709 155.457 34.3138 157.511 34.3138C162.852 34.3138 166.591 38.1345 166.591 43.6399C166.591 47.3783 165.112 50.3363 162.277 52.1442C160.921 53.048 158.58 53.9108 156.648 53.9108H156.649ZM83.4364 36.3265C82.5736 36.3265 81.7932 36.5318 81.2175 36.9427C79.6157 37.9288 78.7938 39.9011 78.7938 42.7767C78.7938 48.1592 81.5051 51.939 85.3673 51.939C86.5177 51.939 87.4214 51.61 88.2023 50.9529C89.3933 49.9663 90.0099 47.9945 90.0099 45.2418C90.0099 39.9011 87.3805 36.3265 83.4364 36.3265ZM84.1759 53.9108C77.1915 53.9108 74.6855 48.7754 74.6855 43.9685C74.6855 40.5996 76.0411 38.0112 78.7524 36.1622C80.6837 34.9709 82.9845 34.3138 85.0387 34.3138C90.3798 34.3138 94.1182 38.1345 94.1182 43.6399C94.1182 47.3783 92.6393 50.3363 89.8042 52.1442C88.4895 53.048 86.1477 53.9108 84.1759 53.9108ZM37.2165 53.4999C37.1341 53.377 37.0518 53.007 37.0932 52.5552C37.0932 52.2261 37.1756 52.0209 37.2165 51.939C38.0793 51.8152 38.5312 51.6919 39.024 51.569C39.8459 51.3633 40.1745 50.9119 40.2154 49.8848C40.3392 47.4197 40.3392 42.7357 40.2978 39.4902V39.4078C40.2978 39.0383 40.2978 38.5859 39.8459 38.2574C39.1883 37.8469 38.4079 37.4774 37.3808 37.1889C37.0113 37.0665 36.7646 36.8608 36.8056 36.6146C36.8056 36.3679 37.0522 36.0803 37.5865 35.998C38.9421 35.8746 42.4748 35.0123 43.8719 34.3957C43.9542 34.4776 44.0776 34.7247 44.0776 35.0532L44.0366 35.5047C43.9952 35.957 43.9542 36.4913 43.9542 37.0251C43.9542 37.1893 44.119 37.3127 44.2828 37.3127C44.3652 37.3127 44.4475 37.2717 44.5295 37.2303C47.1588 35.1761 49.5416 34.4366 50.7739 34.4366C52.7876 34.4366 54.3489 35.3818 55.5403 37.3536C55.6222 37.4774 55.7046 37.5183 55.8279 37.5183C55.9098 37.5183 56.0327 37.4774 56.0741 37.395C58.4982 35.5461 60.9224 34.4366 62.5242 34.4366C66.345 34.4366 68.6048 37.2717 68.6048 42.0786C68.6048 43.4342 68.6048 45.2008 68.5639 46.8035C68.5639 48.2411 68.5229 49.5558 68.5229 50.501C68.5229 50.7058 68.8101 51.3633 69.262 51.4867C69.8372 51.7743 70.618 51.8976 71.6451 52.0619H71.6861C71.7685 52.3495 71.6042 53.4175 71.4399 53.6232C71.1933 53.6232 70.8233 53.6232 70.4128 53.5822C69.3728 53.528 68.3316 53.5005 67.2901 53.4999C64.7431 53.4999 63.4284 53.5408 62.1542 53.6232C62.0728 53.2946 62.0314 52.3085 62.1542 52.0619C62.8942 51.939 63.2637 51.8152 63.716 51.6923C64.5379 51.4457 64.7431 51.0757 64.7845 50.0077C64.7845 49.2272 64.9484 42.5714 64.7017 40.9691C64.4555 39.3259 63.2227 37.395 60.511 37.395C59.4839 37.395 57.8821 37.8059 56.3207 38.9969C56.2388 39.0792 56.156 39.2845 56.156 39.4078V39.4492C56.3207 40.3116 56.3207 41.2981 56.3207 42.8181V45.4884C56.3207 47.3373 56.2793 49.063 56.3207 50.3772C56.3207 51.2814 56.855 51.4867 57.3069 51.6514C57.5535 51.6919 57.7173 51.7333 57.923 51.7743C58.2925 51.8566 58.6625 51.939 59.2377 52.0619C59.3201 52.2266 59.3201 52.7604 59.1967 53.2123C59.1553 53.4589 59.073 53.5818 59.032 53.6232C57.6354 53.5822 56.1974 53.5408 54.1023 53.5408C53.4861 53.5408 52.4176 53.5822 51.5138 53.5822C50.7739 53.5822 50.0758 53.6232 49.6653 53.6232C49.6239 53.5408 49.5416 53.2537 49.5416 52.8014C49.5416 52.4318 49.6239 52.1442 49.7063 52.0619C49.9115 52.0209 50.0758 51.9799 50.2815 51.9799C50.7739 51.8976 51.1853 51.8152 51.5958 51.7333C52.2947 51.5281 52.5409 51.1581 52.5819 50.2543C52.7052 48.2002 52.8285 42.3252 52.5409 40.8458C52.0481 38.4631 50.6924 37.2717 48.5145 37.2717C47.2412 37.2717 45.6385 37.8879 44.3242 38.8744C44.1185 39.0383 43.9542 39.4488 43.9542 39.8187V42.2429C43.9542 45.2008 43.9542 48.8987 43.9952 50.501C44.0366 50.9934 44.2004 51.569 45.1456 51.7743C45.3513 51.8152 45.6799 51.8976 46.0908 51.939L46.8298 52.0619C46.9126 52.3085 46.8712 53.2946 46.707 53.6232C46.296 53.6232 45.8032 53.5822 45.2275 53.5822C44.3652 53.5408 43.2557 53.4999 42.0234 53.4999C40.5854 53.4999 39.5583 53.5408 38.7364 53.5822C38.1612 53.4999 37.7094 53.4999 37.2165 53.4999Z" fill="#442D22"/>
<path fill-rule="evenodd" clip-rule="evenodd" d="M15.6058 63.3603L13.9216 62.7847C13.9216 62.7847 14.1273 54.1984 11.0455 53.5823C8.99182 51.1991 11.375 -47.4851 18.7699 53.2533C18.7699 53.2533 16.2224 54.5266 15.7705 56.7045C15.2772 58.841 15.6058 63.3603 15.6058 63.3603Z" fill="white"/>
<path fill-rule="evenodd" clip-rule="evenodd" d="M15.6058 63.3603L13.9216 62.7847C13.9216 62.7847 14.1273 54.1984 11.0455 53.5823C8.99182 51.1991 11.375 -47.4851 18.7699 53.2533C18.7699 53.2533 16.2224 54.5266 15.7705 56.7045C15.2772 58.841 15.6058 63.3603 15.6058 63.3603Z" fill="#A6A385"/>
<path fill-rule="evenodd" clip-rule="evenodd" d="M16.51 55.0613C16.51 55.0613 31.2597 45.3651 27.808 25.1924C24.4805 10.526 16.6333 5.71913 15.7705 3.8702C14.8258 2.5555 13.9216 0.255127 13.9216 0.255127L14.5382 41.0511C14.5382 41.0925 13.2645 53.5409 16.5104 55.0617" fill="white"/>
<path fill-rule="evenodd" clip-rule="evenodd" d="M16.51 55.0613C16.51 55.0613 31.2597 45.3651 27.808 25.1924C24.4805 10.526 16.6333 5.71913 15.7705 3.8702C14.8258 2.5555 13.9216 0.255127 13.9216 0.255127L14.5382 41.0511C14.5382 41.0925 13.2645 53.5409 16.5104 55.0617" fill="#499D4A"/>
<path fill-rule="evenodd" clip-rule="evenodd" d="M13.0592 55.5951C13.0592 55.5951 -0.786678 46.1456 0.0351718 29.5069C0.815617 12.8678 10.5937 4.69204 12.4836 3.21306C13.7163 1.89837 13.7573 1.40508 13.8397 0.0903931C14.7025 1.93933 14.5382 27.7403 14.6611 30.7802C15.0306 42.4891 14.0039 53.377 13.0592 55.5951Z" fill="white"/>
<path fill-rule="evenodd" clip-rule="evenodd" d="M13.0592 55.5951C13.0592 55.5951 -0.786678 46.1456 0.0351718 29.5069C0.815617 12.8678 10.5937 4.69204 12.4836 3.21306C13.7163 1.89837 13.7573 1.40508 13.8397 0.0903931C14.7025 1.93933 14.5382 27.7403 14.6611 30.7802C15.0306 42.4891 14.0039 53.377 13.0592 55.5951Z" fill="#58AA50"/>
</g>
<defs>
<clipPath id="clip0">
<rect width="227.945" height="65" fill="white"/>
</clipPath>
</defs>
</svg>
