<svg width="88" height="88" viewBox="0 0 88 88" fill="none" xmlns="http://www.w3.org/2000/svg">
<g clip-path="url(#clip0)">
<path d="M60.1563 20.812C59.7273 20.812 59.4413 20.8698 59.1525 20.9413V20.9853H59.1965C59.3973 21.3565 59.7273 21.6453 59.983 21.989C60.1838 22.3768 60.3543 22.7755 60.5413 23.1633L60.599 23.1055C60.9428 22.8608 61.116 22.4758 61.116 21.8873C60.973 21.714 60.9428 21.5298 60.8163 21.3703C60.6733 21.1255 60.357 20.999 60.1563 20.812ZM21.1558 69.1928H17.7623C17.6595 63.7913 17.3301 58.3966 16.775 53.0228H16.7475L11.5775 69.1928H8.98428L3.85553 53.0228H3.81153C3.41296 58.4045 3.17452 63.7969 3.09653 69.1928H0.0027771C0.170297 62.4117 0.672324 55.6431 1.50703 48.9115H5.71728L10.615 63.8083H10.6425L15.5843 48.9115H19.5938C20.482 56.3035 21.0128 63.063 21.1695 69.1928H21.1558ZM35.8793 54.2273C34.5043 61.732 32.67 67.1908 30.4233 70.5843C28.6468 73.205 26.7135 74.5223 24.607 74.5223C24.0488 74.5223 23.3613 74.349 22.5308 74.0053V72.2013C22.946 72.259 23.419 72.3003 23.9498 72.3003C24.937 72.3003 25.7263 72.0143 26.3285 71.4835C27.0435 70.8235 27.4038 70.081 27.4038 69.2643C27.4038 68.6923 27.1315 67.5455 26.5595 65.7993L22.8498 54.2273H26.1883L28.853 62.8788C29.4553 64.856 29.7138 66.2173 29.5983 67.0038C31.0723 63.107 32.0898 58.839 32.6645 54.2273H35.8793ZM81.081 69.1928H71.4285V48.9115H74.679V66.7013H81.081V69.1928ZM68.9068 69.6823L65.1833 67.848C65.5133 67.5758 65.8268 67.276 66.1155 66.9323C67.705 65.0843 68.4943 62.3205 68.4943 58.6823C68.4943 51.964 65.8598 48.6145 60.588 48.6145C58.0085 48.6145 55.99 49.4588 54.5435 51.1638C52.9678 53.0255 52.1648 55.7755 52.1648 59.4C52.1648 62.9668 52.866 65.5738 54.2713 67.2485C55.561 68.739 57.4943 69.498 60.0875 69.498C61.0473 69.498 61.9355 69.3825 62.7385 69.1405L67.595 71.9758L68.926 69.685L68.9068 69.6823ZM56.8343 65.1255C56.0038 63.8083 55.6023 61.688 55.6023 58.7648C55.6023 53.6525 57.1505 51.1033 60.258 51.1033C61.8778 51.1033 63.0795 51.7193 63.8385 52.9375C64.6553 54.2685 65.0705 56.3613 65.0705 59.2543C65.0705 64.3968 63.5085 66.99 60.4148 66.99C58.7813 66.99 57.5933 66.374 56.8205 65.1558L56.8343 65.1255ZM50.7595 63.58C50.7595 65.2988 50.1298 66.7178 48.8538 67.804C47.5943 68.9068 45.9168 69.465 43.7828 69.465C41.7918 69.465 39.886 68.8353 38.0105 67.573L38.885 65.8268C40.4883 66.6298 41.9348 67.0313 43.2548 67.0313C44.473 67.0313 45.4328 66.759 46.1203 66.2283C46.8078 65.6838 47.223 64.9248 47.223 63.965C47.223 62.7605 46.3788 61.7293 44.8443 60.8713C43.4253 60.0848 40.5763 58.465 40.5763 58.465C39.028 57.3348 38.269 56.1303 38.269 54.1393C38.269 52.492 38.841 51.1748 39.9878 50.171C41.1483 49.1398 42.6223 48.6393 44.4565 48.6393C46.2814 48.6234 48.0704 49.1467 49.599 50.1435L48.8125 51.8898C47.5838 51.3487 46.2583 51.0615 44.9158 51.0455C43.8708 51.0455 43.0678 51.304 42.5095 51.8045C41.9513 52.305 41.6075 52.9348 41.6075 53.724C41.6075 54.9285 42.4683 55.9598 44.0413 56.8453C45.4878 57.6318 48.3945 59.2955 48.3945 59.2955C49.984 60.412 50.7733 61.6165 50.7733 63.5773L50.7595 63.58ZM85.151 42.1108C83.1875 42.0668 81.6695 42.2675 80.3963 42.812C80.0388 42.955 79.4503 42.955 79.3925 43.4143C79.5933 43.615 79.6208 43.9313 79.794 44.2008C80.0938 44.6875 80.597 45.3475 81.07 45.6913C81.587 46.0928 82.1013 46.4943 82.632 46.838C83.5918 47.4265 84.667 47.7703 85.6103 48.356C86.141 48.6998 86.6855 49.1425 87.2135 49.5028C87.4858 49.6898 87.6563 50.0198 88 50.1325V50.061C87.8268 49.8465 87.7855 49.5303 87.6123 49.2745C87.3675 49.0298 87.1255 48.8153 86.8808 48.5733C86.1636 47.6211 85.3037 46.7853 84.3315 46.0955C83.545 45.5648 81.8263 44.8195 81.51 43.9175L81.466 43.8598C81.9968 43.8158 82.6265 43.615 83.1408 43.472C83.9713 43.2575 84.744 43.2988 85.6048 43.0843C85.9996 42.9818 86.3912 42.8672 86.779 42.7405V42.526C86.3363 42.0833 86.0063 41.481 85.547 41.0658C84.2815 39.9584 82.9308 38.9525 81.5073 38.0573C80.7345 37.5568 79.761 37.2405 78.9443 36.8253C78.6583 36.6823 78.1578 36.6108 77.9983 36.366C77.5555 35.8215 77.297 35.1203 76.9808 34.474C76.2614 33.0759 75.5927 31.6523 74.976 30.206C74.5333 29.2463 74.2748 28.3003 73.7303 27.412C71.2085 23.243 68.4585 20.724 64.2483 18.2463C63.3463 17.7293 62.2573 17.5148 61.1105 17.2425C60.4945 17.215 59.8923 17.171 59.2763 17.1435C58.8748 16.9703 58.4898 16.5138 58.146 16.2828C56.7435 15.3945 53.1328 13.4888 52.1153 16.0105C51.4553 17.6138 53.0888 19.1758 53.6635 19.9788C54.0788 20.5508 54.6095 21.1833 54.9093 21.813C55.0825 22.242 55.1238 22.6875 55.297 23.1303C55.6848 24.2055 56.056 25.4073 56.573 26.411C56.8453 26.928 57.1313 27.4698 57.475 27.929C57.6758 28.2013 58.0195 28.3168 58.091 28.7595C57.7473 29.26 57.7198 29.9915 57.5328 30.5938C56.6445 33.3713 56.9883 36.795 58.234 38.8438C58.6355 39.4598 59.565 40.8073 60.8135 40.2903C61.9163 39.8475 61.6743 38.456 61.9878 37.224C62.0593 36.9243 62.0153 36.7373 62.161 36.5365V36.5943C62.5185 37.2818 62.8623 37.9418 63.1785 38.6293C63.9238 39.8338 65.2548 41.0795 66.3575 41.91C66.946 42.3528 67.4025 43.1145 68.134 43.384V43.3125H68.0763C67.9195 43.098 67.7188 42.9963 67.518 42.8258C67.0536 42.3657 66.6226 41.8731 66.2283 41.3518C65.2108 39.9768 64.295 38.4588 63.492 36.8968C63.1052 36.125 62.7519 35.3368 62.4333 34.5345C62.2903 34.2485 62.2903 33.803 62.0455 33.66C61.6743 34.1908 61.1298 34.6473 60.8713 35.321C60.3983 36.366 60.3543 37.6695 60.17 39.017C60.0848 39.0445 60.126 39.017 60.0848 39.0748C59.2983 38.874 59.026 38.071 58.7373 37.3835C57.992 35.6373 57.8765 32.8433 58.509 30.8385C58.6823 30.3215 59.411 28.7045 59.125 28.2178C58.9683 27.7448 58.4815 27.4725 58.223 27.1013C57.893 26.642 57.563 26.0563 57.3348 25.5393C56.7463 24.1643 56.4603 22.6463 55.8168 21.2713C55.5308 20.6415 55.0138 19.9815 54.5985 19.3958C54.1255 18.7358 53.6113 18.2655 53.251 17.49C53.1218 17.2178 52.9513 16.775 53.152 16.4863C53.196 16.2855 53.295 16.214 53.4958 16.1563C53.812 15.884 54.7278 16.2278 55.044 16.3845C55.946 16.742 56.705 17.0858 57.464 17.6028C57.8078 17.8475 58.179 18.304 58.6245 18.4333H59.1415C59.928 18.6065 60.8025 18.4773 61.534 18.7055C62.8375 19.1208 64.0118 19.723 65.0705 20.3803C68.3083 22.4587 70.9414 25.3535 72.7045 28.7733C73.0043 29.3315 73.1335 29.8485 73.4058 30.4343C73.9063 31.6525 74.5525 32.868 75.0668 34.0285C75.581 35.189 76.0705 36.3633 76.813 37.323C77.1843 37.84 78.6473 38.1095 79.3183 38.368C79.805 38.5963 80.564 38.797 80.993 39.0555C81.8373 39.5725 82.6678 40.1583 83.457 40.7303C83.8585 41.0025 85.0768 41.6185 85.1483 42.1053L85.151 42.1108Z" fill="black"/>
</g>
<defs>
<clipPath id="clip0">
<rect width="88" height="88" fill="white"/>
</clipPath>
</defs>
</svg>
