<svg width="144" height="88" viewBox="0 0 144 88" fill="none" xmlns="http://www.w3.org/2000/svg">
<g clip-path="url(#clip0)">
<path d="M70.9353 87.7461C70.4496 87.7461 69.9961 87.6166 69.5749 87.3899L65.2671 84.8312C64.6192 84.4747 64.9432 84.3452 65.1377 84.2804C66.012 83.989 66.174 83.924 67.0809 83.4061C67.1782 83.341 67.3079 83.3735 67.4049 83.4383L70.7088 85.4141C70.8383 85.4788 71.0003 85.4788 71.0973 85.4141L84.0212 77.9318C84.1507 77.8671 84.2157 77.7373 84.2157 77.5756V62.6437C84.2157 62.4814 84.1507 62.3522 84.0212 62.2872L71.0973 54.8375C70.9678 54.7724 70.8058 54.7724 70.7088 54.8375L57.7849 62.2872C57.6554 62.3519 57.5904 62.5139 57.5904 62.6434V77.5754C57.5904 77.7051 57.6554 77.8668 57.7849 77.9318L61.3155 79.9724C63.2266 80.944 64.425 79.8104 64.425 78.6768V63.939C64.425 63.7448 64.5869 63.5503 64.8137 63.5503H66.4655C66.66 63.5503 66.8542 63.7123 66.8542 63.939V78.6768C66.8542 81.2355 65.4613 82.7256 63.0321 82.7256C62.2872 82.7256 61.7042 82.7256 60.0521 81.9157L56.6513 79.9724C55.8091 79.4867 55.2909 78.5795 55.2909 77.6079V62.6759C55.2909 61.7043 55.8091 60.7971 56.6513 60.3114L69.5749 52.8292C70.3849 52.3757 71.4863 52.3757 72.2959 52.8292L85.2196 60.3114C86.0618 60.7971 86.5802 61.7043 86.5802 62.6759V77.6079C86.5802 78.5795 86.0618 79.4867 85.2196 79.9724L72.2959 87.4546C71.8747 87.6491 71.389 87.7461 70.9356 87.7461H70.9353ZM74.9194 77.4784C69.2512 77.4784 68.0851 74.8872 68.0851 72.6846C68.0851 72.4901 68.2471 72.2959 68.4738 72.2959H70.1581C70.3524 72.2959 70.5143 72.4254 70.5143 72.6199C70.7736 74.3365 71.5185 75.1786 74.9519 75.1786C77.6726 75.1786 78.839 74.5632 78.839 73.1056C78.839 72.2634 78.5148 71.6483 74.2717 71.227C70.7411 70.8706 68.5385 70.0934 68.5385 67.2754C68.5385 64.6517 70.7413 63.0969 74.4337 63.0969C78.5795 63.0969 80.6203 64.5222 80.8796 67.6314C80.8796 67.7289 80.8471 67.8259 80.7823 67.9231C80.7173 67.9879 80.6203 68.0526 80.5231 68.0526H78.8388C78.6768 68.0526 78.5148 67.9231 78.4825 67.7611C78.0938 65.9798 77.0897 65.3966 74.4337 65.3966C71.4538 65.3966 71.0973 66.4333 71.0973 67.2104C71.0973 68.1498 71.5185 68.4413 75.5348 68.9595C79.5189 69.478 81.3978 70.2229 81.3978 73.0083C81.3652 75.8588 79.0332 77.4784 74.9194 77.4784Z" fill="#539E43"/>
<path d="M30.8359 29.346C30.8359 28.7631 30.5119 28.2121 29.9937 27.9207L16.2601 20.0175C16.0331 19.8877 15.7741 19.823 15.5152 19.7905H15.3854C15.1265 19.7905 14.8672 19.8877 14.6405 20.0175L0.906894 27.9207C0.388422 28.2121 0.0647278 28.7628 0.0647278 29.346L0.0972374 50.5941C0.0972374 50.8856 0.259225 51.177 0.51818 51.3068C0.777416 51.4688 1.10111 51.4688 1.32812 51.3068L9.49054 46.6425C10.0087 46.351 10.3327 45.8003 10.3327 45.2174V35.2734C10.3327 34.6905 10.6564 34.1398 11.1749 33.8483L14.6405 31.84C14.8997 31.678 15.1912 31.613 15.4827 31.613C15.7741 31.613 16.0656 31.678 16.2926 31.84L19.7582 33.8483C20.2767 34.1398 20.6004 34.6902 20.6004 35.2734V45.2174C20.6004 45.8003 20.9244 46.351 21.4426 46.6425L29.605 51.3068C29.8642 51.4688 30.1879 51.4688 30.4472 51.3068C30.7064 51.177 30.8684 50.8856 30.8684 50.5941L30.8359 29.346Z" fill="#333333"/>
<path d="M96.8479 0.0972574C96.589 -0.0325005 96.265 -0.0325005 96.038 0.0972574C95.779 0.259245 95.617 0.5182 95.617 0.809665V21.8638C95.617 22.058 95.5201 22.2522 95.3256 22.382C95.1314 22.479 94.9369 22.479 94.7427 22.382L91.3092 20.4062C91.0575 20.2629 90.7729 20.1875 90.4832 20.1875C90.1935 20.1875 89.9089 20.2629 89.6571 20.4062L75.9235 28.3419C75.4053 28.6334 75.0813 29.1841 75.0813 29.767V45.6059C75.0813 46.1888 75.4053 46.7398 75.9235 47.0312L89.6571 54.9669C89.9089 55.1103 90.1935 55.1856 90.4832 55.1856C90.7729 55.1856 91.0575 55.1103 91.3092 54.9669L105.043 47.0312C105.561 46.7398 105.885 46.1891 105.885 45.6059V6.12189C105.885 5.50645 105.561 4.95603 105.043 4.66429L96.8482 0.0972574H96.8479ZM95.5848 40.3912C95.5848 40.5532 95.5201 40.6826 95.3903 40.7474L90.6938 43.4681C90.6282 43.5001 90.5562 43.5167 90.4832 43.5167C90.4102 43.5167 90.3382 43.5001 90.2726 43.4681L85.5761 40.7474C85.4463 40.6826 85.3816 40.5206 85.3816 40.3912V34.9495C85.3816 34.7875 85.4463 34.658 85.5761 34.5933L90.2726 31.8723C90.3382 31.8403 90.4102 31.8236 90.4832 31.8236C90.5562 31.8236 90.6282 31.8403 90.6938 31.8723L95.3903 34.5933C95.5201 34.6577 95.5848 34.82 95.5848 34.9495V40.3912Z" fill="#333333"/>
<path d="M142.551 34.82C143.07 34.5286 143.361 33.9779 143.361 33.3946V29.5403C143.361 28.9574 143.037 28.4067 142.551 28.1152L128.915 20.212C128.663 20.0687 128.378 19.9934 128.089 19.9934C127.799 19.9934 127.515 20.0687 127.263 20.212L113.529 28.1474C113.011 28.4389 112.687 28.9896 112.687 29.5728V45.4117C112.687 45.9946 113.011 46.5453 113.529 46.8368L127.166 54.6105C127.684 54.902 128.299 54.902 128.785 54.6105L137.045 50.0115C137.304 49.8818 137.466 49.5903 137.466 49.2988C137.466 49.0074 137.304 48.7159 137.045 48.5861L123.246 40.6504C122.987 40.4887 122.825 40.2295 122.825 39.938V34.9823C122.825 34.6908 122.987 34.3994 123.246 34.2696L127.554 31.8078C127.68 31.7285 127.826 31.6864 127.975 31.6864C128.124 31.6864 128.27 31.7285 128.397 31.8078L132.704 34.2696C132.964 34.4316 133.126 34.6905 133.126 34.9823V38.8691C133.126 39.1606 133.288 39.4521 133.546 39.5816C133.806 39.7435 134.129 39.7435 134.389 39.5816L142.551 34.82Z" fill="#333333"/>
<path d="M127.878 34.0751C127.926 34.0434 127.983 34.0266 128.04 34.0266C128.098 34.0266 128.154 34.0434 128.202 34.0751L130.826 35.5974C130.923 35.6619 130.988 35.7591 130.988 35.8889V38.9336C130.988 39.063 130.923 39.1603 130.826 39.225L128.202 40.7474C128.154 40.779 128.098 40.7959 128.04 40.7959C127.983 40.7959 127.926 40.779 127.878 40.7474L125.255 39.225C125.157 39.1603 125.093 39.063 125.093 38.9336V35.8889C125.093 35.7591 125.157 35.6619 125.255 35.5974L127.878 34.0751Z" fill="#539E43"/>
<mask id="mask0" mask-type="alpha" maskUnits="userSpaceOnUse" x="37" y="20" width="32" height="35">
<path d="M53.8008 20.2767C53.5492 20.1334 53.2645 20.0581 52.9749 20.0581C52.6853 20.0581 52.4007 20.1334 52.149 20.2767L38.5127 28.1471C37.9942 28.4386 37.7027 28.9893 37.7027 29.5722V45.3466C37.7027 45.9296 38.0267 46.4803 38.5127 46.7717L52.149 54.6427C52.4007 54.786 52.6853 54.8613 52.9749 54.8613C53.2645 54.8613 53.5492 54.786 53.8008 54.6427L67.4375 46.7717C67.9557 46.4803 68.2474 45.9296 68.2474 45.3466V29.5725C68.2474 28.9896 67.9231 28.4389 67.4375 28.1474L53.8008 20.2767Z" fill="white"/>
</mask>
<g mask="url(#mask0)">
<path d="M53.8008 20.2767C53.5492 20.1334 53.2645 20.0581 52.9749 20.0581C52.6853 20.0581 52.4007 20.1334 52.149 20.2767L38.5127 28.1471C37.9942 28.4386 37.7027 28.9893 37.7027 29.5722V45.3466C37.7027 45.9296 38.0267 46.4803 38.5127 46.7717L52.149 54.6427C52.4007 54.786 52.6853 54.8613 52.9749 54.8613C53.2645 54.8613 53.5492 54.786 53.8008 54.6427L67.4375 46.7717C67.9557 46.4803 68.2474 45.9296 68.2474 45.3466V29.5725C68.2474 28.9896 67.9231 28.4389 67.4375 28.1474L53.8008 20.2767Z" fill="url(#paint0_linear)"/>
<path d="M67.4697 28.1474L53.7686 20.2767C53.634 20.2088 53.4929 20.1545 53.3474 20.1147L37.9942 46.4161C38.1213 46.5714 38.275 46.703 38.4479 46.8048L52.149 54.6758C52.5377 54.9025 52.9912 54.9672 53.4121 54.8375L67.8262 28.4717C67.7289 28.3422 67.5992 28.2447 67.4697 28.1477V28.1474Z" fill="url(#paint1_linear)"/>
<path fill-rule="evenodd" clip-rule="evenodd" d="M67.5022 46.772C67.891 46.5453 68.1824 46.1566 68.3122 45.7356L53.2824 20.0822C52.8937 20.0175 52.4724 20.0497 52.1165 20.2764L38.5124 28.1152L53.1851 54.8697C53.3985 54.8348 53.6058 54.7694 53.8006 54.6755L67.502 46.7723L67.5022 46.772Z" fill="url(#paint2_linear)"/>
<path fill-rule="evenodd" clip-rule="evenodd" d="M67.5022 46.772L53.8333 54.6429C53.6404 54.7413 53.4324 54.807 53.2179 54.8372L53.4771 55.3231L68.6358 46.5456V46.3511L68.2471 45.7031C68.1824 46.1566 67.8909 46.5453 67.5022 46.772Z" fill="url(#paint3_linear)"/>
<path fill-rule="evenodd" clip-rule="evenodd" d="M67.5022 46.772L53.8333 54.6429C53.6404 54.7413 53.4324 54.807 53.2179 54.8372L53.4771 55.3231L68.6358 46.5456V46.3511L68.2471 45.7031C68.1824 46.1566 67.8909 46.5453 67.5022 46.772Z" fill="url(#paint4_linear)"/>
</g>
</g>
<defs>
<linearGradient id="paint0_linear" x1="58.5305" y1="26.1441" x2="43.5837" y2="49.6299" gradientUnits="userSpaceOnUse">
<stop stop-color="#41873F"/>
<stop offset="0.3288" stop-color="#418B3D"/>
<stop offset="0.6352" stop-color="#419637"/>
<stop offset="0.9319" stop-color="#3FA92D"/>
<stop offset="1" stop-color="#3FAE2A"/>
</linearGradient>
<linearGradient id="paint1_linear" x1="50.9046" y1="39.3074" x2="88.3381" y2="18.9697" gradientUnits="userSpaceOnUse">
<stop offset="0.1376" stop-color="#41873F"/>
<stop offset="0.4032" stop-color="#54A044"/>
<stop offset="0.7136" stop-color="#66B848"/>
<stop offset="0.9081" stop-color="#6CC04A"/>
</linearGradient>
<linearGradient id="paint2_linear" x1="37.2044" y1="37.4602" x2="68.7589" y2="37.4602" gradientUnits="userSpaceOnUse">
<stop offset="0.09192" stop-color="#6CC04A"/>
<stop offset="0.2864" stop-color="#66B848"/>
<stop offset="0.5968" stop-color="#54A044"/>
<stop offset="0.8624" stop-color="#41873F"/>
</linearGradient>
<linearGradient id="paint3_linear" x1="37.2047" y1="50.5396" x2="68.7587" y2="50.5396" gradientUnits="userSpaceOnUse">
<stop offset="0.09192" stop-color="#6CC04A"/>
<stop offset="0.2864" stop-color="#66B848"/>
<stop offset="0.5968" stop-color="#54A044"/>
<stop offset="0.8624" stop-color="#41873F"/>
</linearGradient>
<linearGradient id="paint4_linear" x1="73.3557" y1="25.3983" x2="65.3619" y2="67.2858" gradientUnits="userSpaceOnUse">
<stop stop-color="#41873F"/>
<stop offset="0.3288" stop-color="#418B3D"/>
<stop offset="0.6352" stop-color="#419637"/>
<stop offset="0.9319" stop-color="#3FA92D"/>
<stop offset="1" stop-color="#3FAE2A"/>
</linearGradient>
<clipPath id="clip0">
<rect width="143.491" height="88" fill="white"/>
</clipPath>
</defs>
</svg>
