<svg width="88" height="88" viewBox="0 0 88 88" fill="none" xmlns="http://www.w3.org/2000/svg">
<path d="M44 36.1516C39.6743 36.1516 36.1515 39.6743 36.1515 44.0001C36.1515 48.3258 39.6743 51.8486 44 51.8486C48.3257 51.8486 51.8485 48.3258 51.8485 44.0001C51.8485 39.6743 48.3257 36.1516 44 36.1516ZM22.0275 59.5981L20.295 59.1691C7.403 55.9021 0 50.3746 0 43.9863C0 37.5981 7.40575 32.0706 20.295 28.8036L22.0275 28.3746L22.5143 30.0933C23.8221 34.5951 25.4941 38.983 27.5138 43.2136L27.885 43.9863L27.5138 44.7728C25.4899 49.0016 23.8177 53.3898 22.5143 57.8931L22.0275 59.5981ZM19.4948 32.8131C9.6965 35.5631 3.68225 39.7871 3.68225 43.9863C3.68225 48.1856 9.69925 52.3931 19.4948 55.1596C20.6955 51.3444 22.1451 47.6119 23.8342 43.9863C22.1428 40.3618 20.6931 36.6292 19.4948 32.8131ZM65.9725 59.5981L65.4857 57.8793C64.1802 53.3812 62.5081 48.9977 60.4863 44.7728L60.115 43.9863L60.4863 43.1998C62.5101 38.9711 64.1823 34.5829 65.4857 30.0796L65.9725 28.3746L67.705 28.8036C80.597 32.0706 88 37.5981 88 43.9863C88 50.3746 80.5943 55.9021 67.705 59.1691L65.9725 59.5981ZM64.1657 43.9863C65.8605 47.6095 67.3102 51.3423 68.5052 55.1596C78.3172 52.3958 84.3177 48.1856 84.3177 43.9863C84.3177 39.7871 78.3008 35.5796 68.5052 32.8131C67.3016 36.6273 65.8521 40.3596 64.1657 43.9863ZM19.4645 32.7993L18.9778 31.0806C15.3533 18.3041 16.456 9.13834 22 5.94284C27.4422 2.80509 36.1652 6.51484 45.3172 15.9116L46.563 17.1876L45.3172 18.4636C42.0672 21.8451 39.0975 25.4852 36.4375 29.3481L35.937 30.0493L35.0763 30.1208C30.3971 30.4902 25.7555 31.2379 21.197 32.3566L19.4645 32.7993ZM26.4248 8.49484C25.4375 8.49484 24.563 8.69559 23.8315 9.12459C20.1933 11.2311 19.5498 18.5351 22.055 28.3883C25.964 27.5139 29.926 26.8966 33.9157 26.5403C36.2127 23.2689 38.7244 20.1536 41.4342 17.2151C35.7197 11.6436 30.305 8.49209 26.4248 8.49209V8.49484ZM61.589 83.1436C61.5752 83.1436 61.5752 83.1436 61.589 83.1436C56.3612 83.1436 49.643 79.2193 42.6828 72.0583L41.437 70.7823L42.6828 69.5063C45.9328 66.1249 48.9025 62.4847 51.5625 58.6218L52.0493 57.9206L52.91 57.8353C57.5952 57.4784 62.2424 56.7306 66.803 55.5996L68.5355 55.1706L69.0223 56.8893C72.6468 69.6658 71.544 78.8178 66 82.0106C64.6596 82.781 63.1347 83.1717 61.589 83.1408V83.1436ZM46.563 70.7548C52.2775 76.3263 57.6922 79.4778 61.5725 79.4778H61.5863C62.5597 79.4778 63.4342 79.2633 64.1657 78.8481C67.804 76.7416 68.464 69.4376 65.9423 59.5843C62.034 60.4597 58.0716 61.0724 54.0815 61.4186C51.7847 64.6945 49.273 67.8143 46.563 70.7576V70.7548ZM68.5355 32.7993L66.803 32.3566C62.2391 31.2416 57.5933 30.494 52.91 30.1208L52.0493 30.0493L51.5625 29.3481C48.9025 25.4852 45.9328 21.8451 42.6828 18.4636L41.437 17.1876L42.6828 15.9116C51.8348 6.51484 60.5578 2.80509 66 5.94284C71.544 9.13559 72.6468 18.3041 69.0223 31.0806L68.5355 32.7993ZM54.0843 26.5403C58.0741 26.8957 62.0362 27.513 65.945 28.3883C68.4668 18.5351 67.8067 11.2283 64.1685 9.12459C60.544 7.03459 53.7268 10.2411 46.5658 17.2178C49.2683 20.1627 51.7796 23.2775 54.0843 26.5431V26.5403ZM26.4248 83.1436C24.8765 83.1711 23.3447 82.7861 22 82.0133C16.456 78.8206 15.3533 69.6658 18.9778 56.8921L19.4645 55.1733L21.197 55.6023C25.4375 56.6776 30.107 57.4201 35.0763 57.8381L35.937 57.9233L36.4237 58.6246C39.0837 62.4875 42.0534 66.1276 45.3035 69.5091L46.5493 70.7851L45.3035 72.0611C38.357 79.2221 31.6388 83.1463 26.4248 83.1463V83.1436ZM22.0578 59.5843C19.536 69.4376 20.196 76.7443 23.8342 78.8481C27.4587 80.9106 34.2622 77.7316 41.437 70.7548C38.727 67.8116 36.2153 64.6917 33.9185 61.4158C29.9283 61.0707 25.9658 60.4579 22.0578 59.5816V59.5843ZM44 61.8888C40.9777 61.8888 37.884 61.7596 34.7765 61.5011L33.9157 61.4296L33.4152 60.7146C31.66 58.1925 30.0113 55.5979 28.4735 52.9376C26.9325 50.2772 25.504 47.5532 24.1917 44.7728L23.8205 43.9863L24.1917 43.1998C26.8208 37.6404 29.9059 32.3082 33.4152 27.2581L33.9157 26.5431L34.7765 26.4716C40.9146 25.9546 47.0854 25.9546 53.2235 26.4716L54.0843 26.5431L54.5848 27.2581C58.0987 32.3054 61.1839 37.6379 63.8082 43.1998L64.1795 43.9863L63.8082 44.7728C61.1892 50.3376 58.1037 55.6705 54.5848 60.7146L54.0843 61.4296L53.2235 61.5011C50.1557 61.7578 47.0785 61.8872 44 61.8888ZM35.9507 57.9068C41.3655 58.3221 46.6345 58.3221 52.063 57.9068C55.0905 53.4736 57.7811 48.8194 60.1122 43.9836C57.791 39.1398 55.0951 34.4845 52.0493 30.0603C46.6911 29.6451 41.3089 29.6451 35.9507 30.0603C32.9027 34.4832 30.2067 39.1386 27.8877 43.9836C30.2195 48.8219 32.9149 53.4763 35.9507 57.9068Z" fill="#00C8FF"/>
</svg>
