<svg width="600" height="601" viewBox="0 0 600 601" fill="none" xmlns="http://www.w3.org/2000/svg">
<path d="M300.004 0V100.005H199.999L300.004 0Z" fill="#E08E79"/>
<path d="M300.004 0H350L300.004 49.9966V0Z" fill="#ECE5CE"/>
<path d="M350 0H399.997L350 49.9966V0Z" fill="#ECE5CE"/>
<path d="M300.004 49.9966H350V99.9932L300.004 49.9966Z" fill="#ECE5CE"/>
<path d="M399.997 49.9966V99.9932H350L399.997 49.9966Z" fill="#E08E79"/>
<path d="M500.002 0H549.999V49.9966L500.002 0Z" fill="#ECE5CE"/>
<path d="M549.999 0L599.996 49.9966H549.999V0Z" fill="#774F38"/>
<path d="M500.002 49.9966H549.999V99.9932L500.002 49.9966Z" fill="#C5E0DC"/>
<path d="M549.999 49.9966H599.996V99.9932L549.999 49.9966Z" fill="#774F38"/>
<path d="M0 100.005L49.9966 150.002H0V100.005Z" fill="#E08E79"/>
<path d="M49.9966 100.005L99.9931 150.002H49.9966V100.005Z" fill="#ECE5CE"/>
<path d="M0 150.002H49.9966V199.999L0 150.002Z" fill="#ECE5CE"/>
<path d="M49.9966 150.002L99.9931 199.999H49.9966V150.002Z" fill="#774F38"/>
<path d="M199.999 100.005V200.011H99.9931L199.999 100.005Z" fill="#E08E79"/>
<path d="M300.004 100.005V200.011H199.999L300.004 100.005Z" fill="#ECE5CE"/>
<path d="M0 199.999L49.9966 249.995H0V199.999Z" fill="#774F38"/>
<path d="M49.9966 199.999L99.9931 249.995H49.9966V199.999Z" fill="#E08E79"/>
<path d="M0 250.007H49.9966V300.004L0 250.007Z" fill="#ECE5CE"/>
<path d="M49.9966 250.007H99.9931L49.9966 300.004V250.007Z" fill="#774F38"/>
<path d="M99.9931 199.999L199.999 300.004H99.9931V199.999Z" fill="#F1D4AF"/>
<path d="M399.997 199.999H449.994V249.995L399.997 199.999Z" fill="#ECE5CE"/>
<path d="M450.006 199.999L500.002 249.995H450.006V199.999Z" fill="#F1D4AF"/>
<path d="M399.997 250.007H449.994V300.004L399.997 250.007Z" fill="#C5E0DC"/>
<path d="M450.006 250.007H500.002L450.006 300.004V250.007Z" fill="#C5E0DC"/>
<path d="M99.9931 300.004H199.999V400.009L99.9931 300.004Z" fill="#C5E0DC"/>
<path d="M199.999 300.004H249.995L199.999 350V300.004Z" fill="#774F38"/>
<path d="M249.995 300.004L299.992 350H249.995V300.004Z" fill="#F1D4AF"/>
<path d="M199.999 350L249.995 399.997H199.999V350Z" fill="#ECE5CE"/>
<path d="M249.995 350L299.992 399.997H249.995V350Z" fill="#E08E79"/>
<path d="M399.997 300.004H500.002L399.997 400.009V300.004Z" fill="#E08E79"/>
<path d="M199.999 400.009H300.004L199.999 500.015V400.009Z" fill="#E08E79"/>
<path d="M300.004 400.009H350L300.004 450.006V400.009Z" fill="#F1D4AF"/>
<path d="M399.997 400.009V450.006H350L399.997 400.009Z" fill="#C5E0DC"/>
<path d="M350 450.006V500.002H300.004L350 450.006Z" fill="#C5E0DC"/>
<path d="M350 450.006L399.997 500.002H350V450.006Z" fill="#E08E79"/>
<path d="M399.997 400.009H500.002V500.015L399.997 400.009Z" fill="#F1D4AF"/>
<path d="M500.002 400.009L549.999 450.006H500.002V400.009Z" fill="#E08E79"/>
<path d="M549.999 400.009L599.996 450.006H549.999V400.009Z" fill="#C5E0DC"/>
<path d="M500.002 450.006H549.999L500.002 500.002V450.006Z" fill="#E08E79"/>
<path d="M549.999 450.006H599.996V500.002L549.999 450.006Z" fill="#C5E0DC"/>
<path d="M149.99 500.002V549.999H99.9931L149.99 500.002Z" fill="#774F38"/>
<path d="M199.999 500.002V549.999H150.002L199.999 500.002Z" fill="#774F38"/>
<path d="M99.9931 550.011L149.99 600.008H99.9931V550.011Z" fill="#C5E0DC"/>
<path d="M150.002 550.011L199.999 600.008H150.002V550.011Z" fill="#E08E79"/>
<path d="M199.999 500.002H249.995L199.999 549.999V500.002Z" fill="#F1D4AF"/>
<path d="M249.995 500.002L299.992 549.999H249.995V500.002Z" fill="#774F38"/>
<path d="M249.995 550.011V600.008H199.999L249.995 550.011Z" fill="#ECE5CE"/>
<path d="M249.995 550.011H299.992V600.008L249.995 550.011Z" fill="#E08E79"/>
</svg>
