<svg width="300" height="301" viewBox="0 0 300 301" fill="none" xmlns="http://www.w3.org/2000/svg">
<path d="M199.999 0L150.002 0L199.999 49.9966V0Z" fill="#774F38"/>
<path d="M150.002 0L100.005 49.9966H150.002V0Z" fill="#F1D4AF"/>
<path d="M300.004 0L199.999 0V100.005L300.004 0Z" fill="#C5E0DC"/>
<path d="M199.999 49.9966L150.002 99.9932H199.999V49.9966Z" fill="#ECE5CE"/>
<path d="M100.005 49.9966L150.002 99.9931V49.9966L100.005 49.9966Z" fill="#E08E79"/>
<path d="M199.999 100.005H99.9932L199.999 200.011V100.005Z" fill="#E08E79"/>
<path d="M99.9933 100.005H49.9966L99.9933 150.002V100.005Z" fill="#F1D4AF"/>
<path d="M49.9966 100.005L49.9966 150.002H0L49.9966 100.005Z" fill="#C5E0DC"/>
<path d="M99.9933 199.999V150.002H49.9966L99.9933 199.999Z" fill="#C5E0DC"/>
<path d="M3.05176e-05 150.002L49.9966 199.999L49.9966 150.002H3.05176e-05Z" fill="#E08E79"/>
<path d="M250.007 199.999V249.995H300.004L250.007 199.999Z" fill="#774F38"/>
<path d="M199.999 199.999V249.995H249.995L199.999 199.999Z" fill="#774F38"/>
<path d="M300.004 250.007L250.007 300.004H300.004V250.007Z" fill="#C5E0DC"/>
<path d="M249.995 250.007L199.999 300.004H249.995V250.007Z" fill="#E08E79"/>
<path d="M199.999 199.999H150.002L199.999 249.995V199.999Z" fill="#F1D4AF"/>
<path d="M150.002 199.999L100.005 249.995H150.002V199.999Z" fill="#774F38"/>
<path d="M150.002 250.007V300.004H199.999L150.002 250.007Z" fill="#ECE5CE"/>
<path d="M150.002 250.007H100.005V300.004L150.002 250.007Z" fill="#E08E79"/>
</svg>
