<svg width="251" height="401" viewBox="0 0 251 401" fill="none" xmlns="http://www.w3.org/2000/svg">
<path d="M250.001 150H150V250.001H250.001V150Z" fill="white"/>
<path d="M150.004 150H200.001L150.004 199.997V150Z" fill="#ECE5CE"/>
<path d="M249.997 150V199.997L200.001 150H249.997Z" fill="#ECE5CE"/>
<path d="M150.004 199.997H200.001V249.993L150.004 199.997Z" fill="#ECE5CE"/>
<path d="M249.997 199.997V249.993H200.001L249.997 199.997Z" fill="#E08E79"/>
<path d="M200.005 0V100.005H100L200.005 0Z" fill="#E08E79"/>
<path d="M0 3.8147e-05H100.005V100.005L0 3.8147e-05Z" fill="#ECE5CE"/>
<path d="M0 199.999L100.005 99.9932V199.999H0Z" fill="#F1D4AF"/>
<path d="M0 199.999H100.005V300.004L0 199.999Z" fill="#C5E0DC"/>
<path d="M100.005 199.999H150.002L100.005 249.995V199.999Z" fill="#774F38"/>
<path d="M150.002 199.999L199.998 249.995H150.002V199.999Z" fill="#F1D4AF"/>
<path d="M100.005 249.995L150.002 299.992H100.005V249.995Z" fill="#ECE5CE"/>
<path d="M150.002 249.995L199.998 299.992H150.002V249.995Z" fill="#E08E79"/>
<path d="M100.005 300.004H200.011L100.005 400.009V300.004Z" fill="#E08E79"/>
</svg>
