<svg width="62" height="70" viewBox="0 0 62 70" fill="none" xmlns="http://www.w3.org/2000/svg">
<path d="M61.25 10V16.25C61.25 21.7578 47.5326 26.25 30.625 26.25C13.7174 26.25 0 21.7578 0 16.25V10C0 4.49217 13.7174 0 30.625 0C47.5326 0 61.25 4.49217 61.25 10ZM61.25 24.0625V38.125C61.25 43.6328 47.5326 48.125 30.625 48.125C13.7174 48.125 0 43.6328 0 38.125V24.0625C6.57959 28.5938 18.6222 30.7032 30.625 30.7032C42.6278 30.7032 54.6703 28.5938 61.25 24.0625ZM61.25 45.9375V60C61.25 65.5078 47.5326 70 30.625 70C13.7174 70 0 65.5078 0 60V45.9375C6.57959 50.4688 18.6222 52.5782 30.625 52.5782C42.6278 52.5782 54.6703 50.4688 61.25 45.9375Z" fill="#774F38"/>
</svg>
