<svg width="80" height="80" viewBox="0 0 80 80" fill="none" xmlns="http://www.w3.org/2000/svg">
<path d="M20 38.689V60.0001H41.3111L36.8667 55.5556H24.4444V43.1334L20 38.689Z" fill="#774F38"/>
<path d="M77.4889 71.7555L71.1111 65.2888V71.111H8.8889V61.8888H13.3333V58.3333H8.8889V43.5555H13.3333V39.9999H8.8889V25.7777H13.3333V22.2222H8.8889V9.79993L44.3111 45.0222V38.7555L8.24445 2.8666C7.93363 2.5532 7.53651 2.33946 7.10374 2.25264C6.67097 2.16582 6.22214 2.20985 5.81449 2.37911C5.40684 2.54837 5.05883 2.83519 4.81482 3.20301C4.57082 3.57083 4.44188 4.00299 4.44445 4.44437V73.3333C4.44445 73.9226 4.67858 74.4879 5.09532 74.9046C5.51207 75.3214 6.0773 75.5555 6.66667 75.5555H75.9111C76.3525 75.5581 76.7847 75.4291 77.1525 75.1851C77.5203 74.9411 77.8071 74.5931 77.9764 74.1854C78.1457 73.7778 78.1897 73.329 78.1029 72.8962C78.016 72.4634 77.8023 72.0663 77.4889 71.7555Z" fill="#774F38"/>
<path d="M53.3333 66.6667H62.2222C63.401 66.6667 64.5314 66.1985 65.3649 65.365C66.1984 64.5315 66.6667 63.401 66.6667 62.2223V19.3334L61.5556 9.93341C61.1603 9.24856 60.5894 8.68158 59.9019 8.29095C59.2144 7.90032 58.4351 7.70018 57.6444 7.71119C56.8359 7.7176 56.0444 7.94448 55.3552 8.36739C54.666 8.7903 54.1053 9.39321 53.7333 10.1112L48.8889 19.3779V62.2223C48.8889 63.401 49.3571 64.5315 50.1906 65.365C51.0241 66.1985 52.1546 66.6667 53.3333 66.6667ZM53.3333 20.4445L57.6444 12.0667L62.2222 20.4667V53.3334H53.3333V20.4445ZM53.3333 56.9556H62.2222V62.3778H53.3333V56.9556Z" fill="#774F38"/>
</svg>
