<svg width="86" height="86" viewBox="0 0 86 86" fill="none" xmlns="http://www.w3.org/2000/svg">
<path d="M82.4167 39.4525L64.5 39.4167C62.5292 39.4167 60.9167 41.0292 60.9167 43V75.25C60.9167 77.2208 62.5292 78.8333 64.5 78.8333H82.4167C84.3875 78.8333 86 77.2208 86 75.25V43C86 41.0292 84.3875 39.4525 82.4167 39.4525ZM82.4167 71.6667H64.5V46.5833H82.4167V71.6667ZM71.6667 7.16666H7.16667C3.225 7.16666 0 10.3917 0 14.3333V57.3333C0 61.275 3.225 64.5 7.16667 64.5H32.25V71.6667H28.6667C26.6958 71.6667 25.0833 73.2792 25.0833 75.25C25.0833 77.2208 26.6958 78.8333 28.6667 78.8333H50.1667C52.1375 78.8333 53.75 77.2208 53.75 75.25C53.75 73.2792 52.1375 71.6667 50.1667 71.6667H46.5833V64.5H50.1667C52.1375 64.5 53.75 62.8875 53.75 60.9167C53.75 58.9458 52.1375 57.3333 50.1667 57.3333H10.75C8.77917 57.3333 7.16667 55.7208 7.16667 53.75V17.9167C7.16667 15.9458 8.77917 14.3333 10.75 14.3333H68.0833C70.0542 14.3333 71.6667 15.9458 71.6667 17.9167V28.6667C71.6667 30.6375 73.2792 32.25 75.25 32.25C77.2208 32.25 78.8333 30.6375 78.8333 28.6667V14.3333C78.8333 10.3917 75.6083 7.16666 71.6667 7.16666Z" fill="#774F38"/>
</svg>
