<svg width="30" height="30" viewBox="0 0 30 30" fill="none" xmlns="http://www.w3.org/2000/svg">
<path d="M15 0C10.9228 0 10.4147 0.0196875 8.81903 0.0871875C7.21685 0.165937 6.1331 0.414375 5.17685 0.785625C4.17603 1.16346 3.26966 1.75501 2.52091 2.51906C1.75473 3.26606 1.16284 4.17294 0.787471 5.175C0.416221 6.13125 0.167784 7.215 0.0890338 8.81719C0.0168463 10.4137 0.00184631 10.9209 0.00184631 14.9981C0.00184631 19.0753 0.0215338 19.5834 0.0890338 21.1791C0.167784 22.7766 0.416221 23.865 0.787471 24.8212C1.1653 25.8221 1.75686 26.7284 2.52091 27.4772C3.26791 28.2434 4.17478 28.8353 5.17685 29.2106C6.1331 29.5772 7.22153 29.8303 8.81903 29.9091C10.4156 29.9813 10.9228 29.9963 15 29.9963C19.0772 29.9963 19.5853 29.9766 21.1809 29.9091C22.7784 29.8303 23.8668 29.5763 24.8231 29.2106C25.8239 28.8328 26.7303 28.2412 27.479 27.4772C28.2462 26.731 28.8382 25.8239 29.2125 24.8212C29.579 23.865 29.8322 22.7766 29.9109 21.1791C29.9831 19.5825 29.9981 19.0753 29.9981 14.9981C29.9981 10.9209 29.9784 10.4128 29.9109 8.81719C29.8322 7.21969 29.5781 6.12563 29.2125 5.175C28.8346 4.17418 28.2431 3.26781 27.479 2.51906C26.7329 1.7519 25.8257 1.15986 24.8231 0.785625C23.8668 0.414375 22.7784 0.165937 21.1809 0.0871875C19.5843 0.015 19.0772 0 15 0ZM15 2.7C19.004 2.7 19.4822 2.71969 21.0647 2.78719C22.5243 2.85563 23.3193 3.09938 23.8472 3.30562C24.4997 3.54649 25.0903 3.92986 25.5759 4.42781C26.073 4.9114 26.4549 5.50064 26.6934 6.15188C26.8997 6.67969 27.1434 7.47469 27.2118 8.93437C27.2793 10.5169 27.299 10.9959 27.299 14.9991C27.299 19.0022 27.2793 19.4813 27.2062 21.0638C27.1275 22.5234 26.8837 23.3184 26.6784 23.8463C26.3943 24.5503 26.0775 25.0425 25.5543 25.575C25.0671 26.0698 24.4769 26.4514 23.8256 26.6925C23.3043 26.8988 22.4981 27.1425 21.0328 27.2109C19.4418 27.2784 18.9731 27.2981 14.9587 27.2981C10.9443 27.2981 10.4765 27.2784 8.88372 27.2053C7.42403 27.1266 6.61872 26.8828 6.09091 26.6775C5.37841 26.3934 4.88997 26.0766 4.36685 25.5534C3.83903 25.0256 3.50341 24.5231 3.24466 23.8247C3.03466 23.3034 2.79466 22.4972 2.71685 21.0319C2.66341 19.4597 2.6381 18.9722 2.6381 14.9766C2.6381 10.9828 2.66341 10.4944 2.71685 8.9025C2.79466 7.43719 3.03466 6.63281 3.24466 6.10969C3.50341 5.39625 3.83997 4.90875 4.36685 4.38094C4.88903 3.85875 5.37841 3.52125 6.09091 3.25688C6.61872 3.05156 7.40435 2.80781 8.86966 2.73469C10.4606 2.6775 10.9293 2.65688 14.9381 2.65688L15 2.7ZM15 7.30031C13.9887 7.29994 12.9873 7.49885 12.053 7.88566C11.1187 8.27248 10.2697 8.83962 9.55465 9.55468C8.83959 10.2697 8.27245 11.1187 7.88564 12.053C7.49882 12.9874 7.29991 13.9888 7.30028 15C7.29991 16.0112 7.49882 17.0126 7.88564 17.947C8.27245 18.8813 8.83959 19.7303 9.55465 20.4453C10.2697 21.1604 11.1187 21.7275 12.053 22.1143C12.9873 22.5012 13.9887 22.7001 15 22.6997C16.0112 22.7001 17.0126 22.5012 17.947 22.1143C18.8813 21.7275 19.7302 21.1604 20.4453 20.4453C21.1604 19.7303 21.7275 18.8813 22.1143 17.947C22.5011 17.0126 22.7 16.0112 22.6997 15C22.7 13.9888 22.5011 12.9874 22.1143 12.053C21.7275 11.1187 21.1604 10.2697 20.4453 9.55468C19.7302 8.83962 18.8813 8.27248 17.947 7.88566C17.0126 7.49885 16.0112 7.29994 15 7.30031ZM15 19.9997C12.2362 19.9997 10.0003 17.7638 10.0003 15C10.0003 12.2362 12.2362 10.0003 15 10.0003C17.7637 10.0003 19.9997 12.2362 19.9997 15C19.9997 17.7638 17.7637 19.9997 15 19.9997ZM24.81 6.99281C24.8095 7.47062 24.6193 7.92869 24.2813 8.26638C23.9432 8.60407 23.485 8.79375 23.0072 8.79375C22.7709 8.79375 22.537 8.74722 22.3187 8.65681C22.1004 8.56639 21.9021 8.43388 21.735 8.26682C21.568 8.09976 21.4355 7.90143 21.345 7.68316C21.2546 7.46489 21.2081 7.23094 21.2081 6.99469C21.2081 6.75843 21.2546 6.52449 21.345 6.30622C21.4355 6.08794 21.568 5.88962 21.735 5.72256C21.9021 5.5555 22.1004 5.42298 22.3187 5.33257C22.537 5.24216 22.7709 5.19562 23.0072 5.19562C23.9981 5.19562 24.81 6.00187 24.81 6.99281Z" fill="white"/>
</svg>
