<svg width="30" height="30" viewBox="0 0 30 30" fill="none" xmlns="http://www.w3.org/2000/svg">
<g clip-path="url(#clip0)">
<path d="M25.5562 25.5666H21.1191V18.6038C21.1191 16.9434 21.0844 14.8097 18.7987 14.8097C16.485 14.8097 16.1325 16.6106 16.1325 18.4809V25.5656H11.6897V11.2491H15.9572V13.2019H16.0144C16.6106 12.0741 18.0609 10.8881 20.2247 10.8881C24.7256 10.8881 25.5609 13.8516 25.5609 17.7047V25.5656L25.5562 25.5666ZM6.67031 9.2925C6.3312 9.29262 5.99539 9.22584 5.68212 9.09599C5.36885 8.96613 5.08428 8.77574 4.8447 8.53573C4.60513 8.29572 4.41526 8.0108 4.28597 7.6973C4.15668 7.3838 4.09051 7.04787 4.09125 6.70875C4.09181 6.19833 4.2437 5.69953 4.52771 5.27543C4.81173 4.85133 5.21512 4.52096 5.68689 4.3261C6.15865 4.13124 6.6776 4.08064 7.17812 4.1807C7.67863 4.28075 8.13825 4.52697 8.49884 4.88822C8.85944 5.24947 9.10482 5.70953 9.20396 6.21023C9.30311 6.71093 9.25157 7.22978 9.05585 7.70119C8.86014 8.1726 8.52904 8.57539 8.10442 8.85864C7.6798 9.14189 7.18073 9.29287 6.67031 9.2925ZM8.89594 25.5666H4.44375V11.25H8.89594V25.5666ZM27.7838 0H2.2125C0.990937 0 0 0.966562 0 2.16281V27.8381C0 29.0344 0.990937 30.0009 2.2125 30.0009H27.7791C28.9988 30.0009 30 29.0344 30 27.8381V2.16281C30 0.966562 28.9988 0 27.7791 0H27.7838Z" fill="white"/>
</g>
<defs>
<clipPath id="clip0">
<rect width="30" height="30" fill="white"/>
</clipPath>
</defs>
</svg>
