<svg width="400" height="400" viewBox="0 0 400 400" fill="none" xmlns="http://www.w3.org/2000/svg">
<g opacity="0.03" clip-path="url(#clip0)">
<path d="M114.38 295.001C109.485 295.008 104.758 293.214 101.1 289.961L-0.100037 200.001L106.72 105.041C110.702 101.634 115.861 99.9269 121.088 100.285C126.316 100.643 131.194 103.039 134.674 106.956C138.154 110.873 139.957 116 139.696 121.233C139.436 126.466 137.132 131.388 133.28 134.941L60.1 200.001L127.66 260.041C130.695 262.734 132.839 266.286 133.808 270.227C134.776 274.167 134.523 278.309 133.083 282.103C131.642 285.896 129.081 289.161 125.74 291.465C122.4 293.769 118.438 295.002 114.38 295.001ZM293.28 294.961L400.1 200.001L298.9 110.041C294.935 106.519 289.733 104.716 284.439 105.029C279.145 105.342 274.192 107.746 270.67 111.711C267.148 115.676 265.345 120.877 265.658 126.171C265.972 131.466 268.375 136.419 272.34 139.941L339.9 200.001L266.72 265.041C262.752 268.563 260.346 273.517 260.031 278.813C259.716 284.109 261.518 289.313 265.04 293.281C268.562 297.248 273.516 299.654 278.812 299.969C284.108 300.284 289.312 298.483 293.28 294.961ZM199.72 323.301L239.72 83.3006C240.231 80.6777 240.212 77.9788 239.663 75.3635C239.114 72.7481 238.046 70.2694 236.523 68.0736C235 65.8777 233.052 64.0095 230.795 62.579C228.538 61.1486 226.017 60.185 223.381 59.7453C220.745 59.3055 218.048 59.3984 215.448 60.0186C212.849 60.6388 210.4 61.7736 208.247 63.356C206.093 64.9384 204.279 66.9364 202.91 69.2318C201.542 71.5273 200.648 74.0737 200.28 76.7206L160.28 316.721C159.768 319.344 159.788 322.042 160.337 324.658C160.886 327.273 161.954 329.752 163.477 331.948C165 334.143 166.947 336.012 169.205 337.442C171.462 338.873 173.983 339.836 176.619 340.276C179.255 340.716 181.952 340.623 184.552 340.003C187.151 339.382 189.6 338.248 191.753 336.665C193.907 335.083 195.721 333.085 197.089 330.789C198.458 328.494 199.352 325.948 199.72 323.301Z" fill="black"/>
</g>
<defs>
<clipPath id="clip0">
<rect width="400" height="400" fill="white"/>
</clipPath>
</defs>
</svg>
