<svg width="30" height="30" viewBox="0 0 30 30" fill="none" xmlns="http://www.w3.org/2000/svg">
<g clip-path="url(#clip0)">
<path d="M29.941 5.7124C28.8181 6.206 27.6289 6.53198 26.4113 6.6799C27.6948 5.90955 28.6556 4.70022 29.116 3.27584C27.902 3.9799 26.5807 4.47998 25.2047 4.75615C24.2794 3.76752 23.0537 3.11189 21.7178 2.89099C20.3819 2.67009 19.0104 2.89627 17.8161 3.53443C16.6218 4.17259 15.6716 5.18706 15.1127 6.42044C14.5539 7.65383 14.4177 9.03716 14.7253 10.3558C9.61315 10.1168 5.08128 7.66052 2.05034 3.9499C1.4986 4.88823 1.21004 5.95795 1.21503 7.04646C1.21428 8.05836 1.46341 9.05479 1.94032 9.94727C2.41722 10.8397 3.10713 11.6006 3.94878 12.1624C2.97343 12.1329 2.01932 11.8703 1.16628 11.3965V11.4705C1.16598 12.8909 1.65679 14.2676 2.55552 15.3674C3.45425 16.4673 4.70561 17.2225 6.09753 17.5052C5.57027 17.6461 5.02703 17.7182 4.48128 17.7199C4.08659 17.7199 3.70972 17.6815 3.33378 17.6121C3.7299 18.8343 4.49722 19.9027 5.52894 20.6684C6.56066 21.4341 7.80545 21.8591 9.09003 21.8843C6.91354 23.5888 4.22795 24.5134 1.46347 24.5102C0.973815 24.5121 0.484492 24.4846 -0.00184631 24.4277C2.81824 26.2347 6.09787 27.194 9.44722 27.1915C20.76 27.1915 26.9419 17.8211 26.9419 9.70615C26.9419 9.4474 26.9419 9.18396 26.9222 8.91959C28.1315 8.05291 29.1736 6.97422 29.9982 5.73584L29.941 5.7124Z" fill="white"/>
</g>
<defs>
<clipPath id="clip0">
<rect width="30" height="30" fill="white"/>
</clipPath>
</defs>
</svg>
